<?xml version="1.0" standalone="no"?><!DOCTYPE svg PUBLIC "-//W3C//DTD SVG 1.1//EN" "http://www.w3.org/Graphics/SVG/1.1/DTD/svg11.dtd"><svg t="1512379724219" class="icon" style="" viewBox="0 0 1024 1024" version="1.1" xmlns="http://www.w3.org/2000/svg" p-id="3232" xmlns:xlink="http://www.w3.org/1999/xlink" width="200" height="200"><defs><style type="text/css"></style></defs><path d="M402.285714 146.285714h219.428572c21.942857 0 36.571429-14.628571 36.571428-36.571428S643.657143 73.142857 621.714286 73.142857h-219.428572c-21.942857 0-36.571429 14.628571-36.571428 36.571429s14.628571 36.571429 36.571428 36.571428z m-146.285714 292.571429c-21.942857 0-36.571429 14.628571-36.571429 36.571428s14.628571 36.571429 36.571429 36.571429h73.142857c21.942857 0 36.571429-14.628571 36.571429-36.571429S351.085714 438.857143 329.142857 438.857143h-73.142857z m292.571429 0h-73.142858c-21.942857 0-36.571429 14.628571-36.571428 36.571428s14.628571 36.571429 36.571428 36.571429h73.142858c21.942857 0 36.571429-14.628571 36.571428-36.571429S570.514286 438.857143 548.571429 438.857143z m146.285714 73.142857h73.142857c21.942857 0 36.571429-14.628571 36.571429-36.571429s-14.628571-36.571429-36.571429-36.571428h-73.142857c-21.942857 0-36.571429 14.628571-36.571429 36.571428s14.628571 36.571429 36.571429 36.571429z m-438.857143 73.142857c-21.942857 0-36.571429 14.628571-36.571429 36.571429s14.628571 36.571429 36.571429 36.571428h73.142857c21.942857 0 36.571429-14.628571 36.571429-36.571428S351.085714 585.142857 329.142857 585.142857h-73.142857z m292.571429 0h-73.142858c-21.942857 0-36.571429 14.628571-36.571428 36.571429s14.628571 36.571429 36.571428 36.571428h73.142858c21.942857 0 36.571429-14.628571 36.571428-36.571428S570.514286 585.142857 548.571429 585.142857z m146.285714 73.142857h73.142857c21.942857 0 36.571429-14.628571 36.571429-36.571428s-14.628571-36.571429-36.571429-36.571429h-73.142857c-21.942857 0-36.571429 14.628571-36.571429 36.571429s14.628571 36.571429 36.571429 36.571428z m-438.857143 73.142857c-21.942857 0-36.571429 14.628571-36.571429 36.571429s14.628571 36.571429 36.571429 36.571429h73.142857c21.942857 0 36.571429-14.628571 36.571429-36.571429s-14.628571-36.571429-36.571429-36.571429h-73.142857z m292.571429 0h-73.142858c-21.942857 0-36.571429 14.628571-36.571428 36.571429s14.628571 36.571429 36.571428 36.571429h73.142858c21.942857 0 36.571429-14.628571 36.571428-36.571429s-14.628571-36.571429-36.571428-36.571429z m146.285714 73.142858h73.142857c21.942857 0 36.571429-14.628571 36.571429-36.571429s-14.628571-36.571429-36.571429-36.571429h-73.142857c-21.942857 0-36.571429 14.628571-36.571429 36.571429s14.628571 36.571429 36.571429 36.571429z m-438.857143-585.142858c21.942857 0 36.571429-14.628571 36.571429-36.571428v-146.285714c0-21.942857-14.628571-36.571429-36.571429-36.571429S219.428571 14.628571 219.428571 36.571429v146.285714c0 21.942857 14.628571 36.571429 36.571429 36.571428z m512 0c21.942857 0 36.571429-14.628571 36.571429-36.571428v-146.285714c0-21.942857-14.628571-36.571429-36.571429-36.571429s-36.571429 14.628571-36.571429 36.571429v146.285714c0 21.942857 14.628571 36.571429 36.571429 36.571428z" fill="#CCCCCC" p-id="3233"></path><path d="M914.285714 73.142857c-21.942857 0-36.571429 14.628571-36.571428 36.571429s14.628571 36.571429 36.571428 36.571428 36.571429 14.628571 36.571429 36.571429v731.428571c0 21.942857-14.628571 36.571429-36.571429 36.571429h-804.571428c-21.942857 0-36.571429-14.628571-36.571429-36.571429v-731.428571c0-21.942857 14.628571-36.571429 36.571429-36.571429s36.571429-14.628571 36.571428-36.571428-14.628571-36.571429-36.571428-36.571429C51.2 73.142857 0 124.342857 0 182.857143v731.428571c0 58.514286 51.2 109.714286 109.714286 109.714286h804.571428c58.514286 0 109.714286-51.2 109.714286-109.714286v-731.428571c0-58.514286-51.2-109.714286-109.714286-109.714286z" fill="#CCCCCC" p-id="3234"></path></svg>